<?xml version="1.0" encoding="UTF-8" standalone="no"?>
<!DOCTYPE svg PUBLIC "-//W3C//DTD SVG 1.1//EN"
 "http://www.w3.org/Graphics/SVG/1.1/DTD/svg11.dtd">
<!-- Generated by graphviz version 2.44.0 (0)
 -->
<!-- Pages: 1 -->
<svg width="494pt" height="548pt"
 viewBox="0.00 0.00 494.00 548.00" xmlns="http://www.w3.org/2000/svg" xmlns:xlink="http://www.w3.org/1999/xlink">
<g id="graph0" class="graph" transform="scale(1 1) rotate(0) translate(4 544)">
<polygon fill="white" stroke="transparent" points="-4,4 -4,-544 490,-544 490,4 -4,4"/>
<!-- 0 -->
<g id="node1" class="node">
<title>0</title>
<ellipse fill="none" stroke="black" cx="207" cy="-522" rx="28.7" ry="18"/>
<text text-anchor="middle" x="207" y="-518.3" font-family="Times,serif" font-size="14.00">Seq</text>
</g>
<!-- 1 -->
<g id="node2" class="node">
<title>1</title>
<ellipse fill="none" stroke="black" cx="63" cy="-450" rx="27" ry="18"/>
<text text-anchor="middle" x="63" y="-446.3" font-family="Times,serif" font-size="14.00">A</text>
</g>
<!-- 0&#45;&gt;1 -->
<g id="edge1" class="edge">
<title>0&#45;&gt;1</title>
<path fill="none" stroke="black" d="M185.13,-510.37C160.64,-498.46 120.78,-479.09 93.3,-465.73"/>
<polygon fill="black" stroke="black" points="94.66,-462.5 84.14,-461.27 91.6,-468.79 94.66,-462.5"/>
</g>
<!-- 2 -->
<g id="node3" class="node">
<title>2</title>
<ellipse fill="none" stroke="black" cx="135" cy="-450" rx="27" ry="18"/>
<text text-anchor="middle" x="135" y="-446.3" font-family="Times,serif" font-size="14.00">b</text>
</g>
<!-- 0&#45;&gt;2 -->
<g id="edge2" class="edge">
<title>0&#45;&gt;2</title>
<path fill="none" stroke="black" d="M192.08,-506.5C182.04,-496.73 168.62,-483.69 157.32,-472.7"/>
<polygon fill="black" stroke="black" points="159.51,-469.95 149.9,-465.49 154.63,-474.97 159.51,-469.95"/>
</g>
<!-- 3 -->
<g id="node4" class="node">
<title>3</title>
<ellipse fill="none" stroke="black" cx="207" cy="-450" rx="27" ry="18"/>
<text text-anchor="middle" x="207" y="-446.3" font-family="Times,serif" font-size="14.00">*</text>
</g>
<!-- 0&#45;&gt;3 -->
<g id="edge3" class="edge">
<title>0&#45;&gt;3</title>
<path fill="none" stroke="black" d="M207,-503.7C207,-495.98 207,-486.71 207,-478.11"/>
<polygon fill="black" stroke="black" points="210.5,-478.1 207,-468.1 203.5,-478.1 210.5,-478.1"/>
</g>
<!-- 16 -->
<g id="node17" class="node">
<title>16</title>
<ellipse fill="none" stroke="black" cx="279" cy="-450" rx="27" ry="18"/>
<text text-anchor="middle" x="279" y="-446.3" font-family="Times,serif" font-size="14.00">Alt</text>
</g>
<!-- 0&#45;&gt;16 -->
<g id="edge16" class="edge">
<title>0&#45;&gt;16</title>
<path fill="none" stroke="black" d="M221.92,-506.5C231.96,-496.73 245.38,-483.69 256.68,-472.7"/>
<polygon fill="black" stroke="black" points="259.37,-474.97 264.1,-465.49 254.49,-469.95 259.37,-474.97"/>
</g>
<!-- 22 -->
<g id="node23" class="node">
<title>22</title>
<ellipse fill="none" stroke="black" cx="351" cy="-450" rx="27" ry="18"/>
<text text-anchor="middle" x="351" y="-446.3" font-family="Times,serif" font-size="14.00">3</text>
</g>
<!-- 0&#45;&gt;22 -->
<g id="edge22" class="edge">
<title>0&#45;&gt;22</title>
<path fill="none" stroke="black" d="M228.87,-510.37C253.36,-498.46 293.22,-479.09 320.7,-465.73"/>
<polygon fill="black" stroke="black" points="322.4,-468.79 329.86,-461.27 319.34,-462.5 322.4,-468.79"/>
</g>
<!-- 4 -->
<g id="node5" class="node">
<title>4</title>
<ellipse fill="none" stroke="black" cx="97" cy="-378" rx="28.7" ry="18"/>
<text text-anchor="middle" x="97" y="-374.3" font-family="Times,serif" font-size="14.00">Seq</text>
</g>
<!-- 3&#45;&gt;4 -->
<g id="edge4" class="edge">
<title>3&#45;&gt;4</title>
<path fill="none" stroke="black" d="M187.84,-436.81C170.44,-425.73 144.56,-409.26 124.87,-396.73"/>
<polygon fill="black" stroke="black" points="126.63,-393.7 116.31,-391.29 122.87,-399.61 126.63,-393.7"/>
</g>
<!-- 5 -->
<g id="node6" class="node">
<title>5</title>
<ellipse fill="none" stroke="black" cx="60" cy="-306" rx="27" ry="18"/>
<text text-anchor="middle" x="60" y="-302.3" font-family="Times,serif" font-size="14.00">c</text>
</g>
<!-- 4&#45;&gt;5 -->
<g id="edge5" class="edge">
<title>4&#45;&gt;5</title>
<path fill="none" stroke="black" d="M88.42,-360.76C83.94,-352.28 78.35,-341.71 73.32,-332.2"/>
<polygon fill="black" stroke="black" points="76.3,-330.35 68.54,-323.15 70.11,-333.62 76.3,-330.35"/>
</g>
<!-- 6 -->
<g id="node7" class="node">
<title>6</title>
<ellipse fill="none" stroke="black" cx="134" cy="-306" rx="28.7" ry="18"/>
<text text-anchor="middle" x="134" y="-302.3" font-family="Times,serif" font-size="14.00">Seq</text>
</g>
<!-- 4&#45;&gt;6 -->
<g id="edge6" class="edge">
<title>4&#45;&gt;6</title>
<path fill="none" stroke="black" d="M105.58,-360.76C110,-352.4 115.49,-342.02 120.47,-332.61"/>
<polygon fill="black" stroke="black" points="123.63,-334.11 125.21,-323.63 117.44,-330.84 123.63,-334.11"/>
</g>
<!-- 7 -->
<g id="node8" class="node">
<title>7</title>
<ellipse fill="none" stroke="black" cx="88" cy="-234" rx="48.19" ry="18"/>
<text text-anchor="middle" x="88" y="-230.3" font-family="Times,serif" font-size="14.00">Nucleus</text>
</g>
<!-- 6&#45;&gt;7 -->
<g id="edge7" class="edge">
<title>6&#45;&gt;7</title>
<path fill="none" stroke="black" d="M123.56,-289.12C117.96,-280.59 110.93,-269.89 104.59,-260.25"/>
<polygon fill="black" stroke="black" points="107.46,-258.23 99.04,-251.8 101.61,-262.08 107.46,-258.23"/>
</g>
<!-- 11 -->
<g id="node12" class="node">
<title>11</title>
<ellipse fill="none" stroke="black" cx="181" cy="-234" rx="27" ry="18"/>
<text text-anchor="middle" x="181" y="-230.3" font-family="Times,serif" font-size="14.00">*</text>
</g>
<!-- 6&#45;&gt;11 -->
<g id="edge11" class="edge">
<title>6&#45;&gt;11</title>
<path fill="none" stroke="black" d="M144.67,-289.12C150.55,-280.34 157.99,-269.26 164.61,-259.42"/>
<polygon fill="black" stroke="black" points="167.71,-261.07 170.38,-250.82 161.9,-257.17 167.71,-261.07"/>
</g>
<!-- 8 -->
<g id="node9" class="node">
<title>8</title>
<ellipse fill="none" stroke="black" cx="88" cy="-162" rx="27" ry="18"/>
<text text-anchor="middle" x="88" y="-158.3" font-family="Times,serif" font-size="14.00">Alt</text>
</g>
<!-- 7&#45;&gt;8 -->
<g id="edge8" class="edge">
<title>7&#45;&gt;8</title>
<path fill="none" stroke="black" d="M88,-215.7C88,-207.98 88,-198.71 88,-190.11"/>
<polygon fill="black" stroke="black" points="91.5,-190.1 88,-180.1 84.5,-190.1 91.5,-190.1"/>
</g>
<!-- 9 -->
<g id="node10" class="node">
<title>9</title>
<ellipse fill="none" stroke="black" cx="27" cy="-90" rx="27" ry="18"/>
<text text-anchor="middle" x="27" y="-86.3" font-family="Times,serif" font-size="14.00">d</text>
</g>
<!-- 8&#45;&gt;9 -->
<g id="edge9" class="edge">
<title>8&#45;&gt;9</title>
<path fill="none" stroke="black" d="M75.06,-146.15C66.81,-136.69 55.96,-124.24 46.66,-113.56"/>
<polygon fill="black" stroke="black" points="49.13,-111.06 39.92,-105.82 43.85,-115.66 49.13,-111.06"/>
</g>
<!-- 10 -->
<g id="node11" class="node">
<title>10</title>
<ellipse fill="none" stroke="black" cx="99" cy="-90" rx="27" ry="18"/>
<text text-anchor="middle" x="99" y="-86.3" font-family="Times,serif" font-size="14.00">e</text>
</g>
<!-- 8&#45;&gt;10 -->
<g id="edge10" class="edge">
<title>8&#45;&gt;10</title>
<path fill="none" stroke="black" d="M90.66,-144.05C91.87,-136.35 93.34,-127.03 94.7,-118.36"/>
<polygon fill="black" stroke="black" points="98.19,-118.7 96.29,-108.28 91.28,-117.61 98.19,-118.7"/>
</g>
<!-- 12 -->
<g id="node13" class="node">
<title>12</title>
<ellipse fill="none" stroke="black" cx="181" cy="-162" rx="48.19" ry="18"/>
<text text-anchor="middle" x="181" y="-158.3" font-family="Times,serif" font-size="14.00">Nucleus</text>
</g>
<!-- 11&#45;&gt;12 -->
<g id="edge12" class="edge">
<title>11&#45;&gt;12</title>
<path fill="none" stroke="black" d="M181,-215.7C181,-207.98 181,-198.71 181,-190.11"/>
<polygon fill="black" stroke="black" points="184.5,-190.1 181,-180.1 177.5,-190.1 184.5,-190.1"/>
</g>
<!-- 13 -->
<g id="node14" class="node">
<title>13</title>
<ellipse fill="none" stroke="black" cx="181" cy="-90" rx="27" ry="18"/>
<text text-anchor="middle" x="181" y="-86.3" font-family="Times,serif" font-size="14.00">Alt</text>
</g>
<!-- 12&#45;&gt;13 -->
<g id="edge13" class="edge">
<title>12&#45;&gt;13</title>
<path fill="none" stroke="black" d="M181,-143.7C181,-135.98 181,-126.71 181,-118.11"/>
<polygon fill="black" stroke="black" points="184.5,-118.1 181,-108.1 177.5,-118.1 184.5,-118.1"/>
</g>
<!-- 14 -->
<g id="node15" class="node">
<title>14</title>
<ellipse fill="none" stroke="black" cx="145" cy="-18" rx="27" ry="18"/>
<text text-anchor="middle" x="145" y="-14.3" font-family="Times,serif" font-size="14.00">d</text>
</g>
<!-- 13&#45;&gt;14 -->
<g id="edge14" class="edge">
<title>13&#45;&gt;14</title>
<path fill="none" stroke="black" d="M172.65,-72.76C168.29,-64.28 162.85,-53.71 157.96,-44.2"/>
<polygon fill="black" stroke="black" points="160.99,-42.44 153.3,-35.15 154.77,-45.64 160.99,-42.44"/>
</g>
<!-- 15 -->
<g id="node16" class="node">
<title>15</title>
<ellipse fill="none" stroke="black" cx="217" cy="-18" rx="27" ry="18"/>
<text text-anchor="middle" x="217" y="-14.3" font-family="Times,serif" font-size="14.00">e</text>
</g>
<!-- 13&#45;&gt;15 -->
<g id="edge15" class="edge">
<title>13&#45;&gt;15</title>
<path fill="none" stroke="black" d="M189.35,-72.76C193.71,-64.28 199.15,-53.71 204.04,-44.2"/>
<polygon fill="black" stroke="black" points="207.23,-45.64 208.7,-35.15 201.01,-42.44 207.23,-45.64"/>
</g>
<!-- 17 -->
<g id="node18" class="node">
<title>17</title>
<ellipse fill="none" stroke="black" cx="171" cy="-378" rx="27" ry="18"/>
<text text-anchor="middle" x="171" y="-374.3" font-family="Times,serif" font-size="14.00">.</text>
</g>
<!-- 16&#45;&gt;17 -->
<g id="edge17" class="edge">
<title>16&#45;&gt;17</title>
<path fill="none" stroke="black" d="M260.19,-436.81C243,-425.67 217.38,-409.06 198.01,-396.5"/>
<polygon fill="black" stroke="black" points="199.89,-393.56 189.6,-391.05 196.08,-399.43 199.89,-393.56"/>
</g>
<!-- 18 -->
<g id="node19" class="node">
<title>18</title>
<ellipse fill="none" stroke="black" cx="243" cy="-378" rx="27" ry="18"/>
<text text-anchor="middle" x="243" y="-374.3" font-family="Times,serif" font-size="14.00">0</text>
</g>
<!-- 16&#45;&gt;18 -->
<g id="edge18" class="edge">
<title>16&#45;&gt;18</title>
<path fill="none" stroke="black" d="M270.65,-432.76C266.29,-424.28 260.85,-413.71 255.96,-404.2"/>
<polygon fill="black" stroke="black" points="258.99,-402.44 251.3,-395.15 252.77,-405.64 258.99,-402.44"/>
</g>
<!-- 19 -->
<g id="node20" class="node">
<title>19</title>
<ellipse fill="none" stroke="black" cx="315" cy="-378" rx="27" ry="18"/>
<text text-anchor="middle" x="315" y="-374.3" font-family="Times,serif" font-size="14.00">1</text>
</g>
<!-- 16&#45;&gt;19 -->
<g id="edge19" class="edge">
<title>16&#45;&gt;19</title>
<path fill="none" stroke="black" d="M287.35,-432.76C291.71,-424.28 297.15,-413.71 302.04,-404.2"/>
<polygon fill="black" stroke="black" points="305.23,-405.64 306.7,-395.15 299.01,-402.44 305.23,-405.64"/>
</g>
<!-- 20 -->
<g id="node21" class="node">
<title>20</title>
<ellipse fill="none" stroke="black" cx="387" cy="-378" rx="27" ry="18"/>
<text text-anchor="middle" x="387" y="-374.3" font-family="Times,serif" font-size="14.00">2</text>
</g>
<!-- 16&#45;&gt;20 -->
<g id="edge20" class="edge">
<title>16&#45;&gt;20</title>
<path fill="none" stroke="black" d="M297.81,-436.81C315,-425.67 340.62,-409.06 359.99,-396.5"/>
<polygon fill="black" stroke="black" points="361.92,-399.43 368.4,-391.05 358.11,-393.56 361.92,-399.43"/>
</g>
<!-- 21 -->
<g id="node22" class="node">
<title>21</title>
<ellipse fill="none" stroke="black" cx="459" cy="-378" rx="27" ry="18"/>
<text text-anchor="middle" x="459" y="-374.3" font-family="Times,serif" font-size="14.00">λ</text>
</g>
<!-- 16&#45;&gt;21 -->
<g id="edge21" class="edge">
<title>16&#45;&gt;21</title>
<path fill="none" stroke="black" d="M300.13,-438.51C304.97,-436.25 310.12,-433.96 315,-432 361.96,-413.16 376.04,-414.84 423,-396 424.83,-395.27 426.7,-394.49 428.57,-393.68"/>
<polygon fill="black" stroke="black" points="430.18,-396.79 437.87,-389.49 427.31,-390.41 430.18,-396.79"/>
</g>
</g>
</svg>
