<?xml version="1.0" encoding="UTF-8" standalone="no"?>
<!DOCTYPE svg PUBLIC "-//W3C//DTD SVG 1.1//EN"
 "http://www.w3.org/Graphics/SVG/1.1/DTD/svg11.dtd">
<!-- Generated by graphviz version 2.44.0 (0)
 -->
<!-- Pages: 1 -->
<svg width="424pt" height="476pt"
 viewBox="0.00 0.00 424.00 476.00" xmlns="http://www.w3.org/2000/svg" xmlns:xlink="http://www.w3.org/1999/xlink">
<g id="graph0" class="graph" transform="scale(1 1) rotate(0) translate(4 472)">
<polygon fill="white" stroke="transparent" points="-4,4 -4,-472 420,-472 420,4 -4,4"/>
<!-- 0 -->
<g id="node1" class="node">
<title>0</title>
<ellipse fill="none" stroke="black" cx="171" cy="-450" rx="28.7" ry="18"/>
<text text-anchor="middle" x="171" y="-446.3" font-family="Times,serif" font-size="14.00">Seq</text>
</g>
<!-- 1 -->
<g id="node2" class="node">
<title>1</title>
<ellipse fill="none" stroke="black" cx="27" cy="-378" rx="27" ry="18"/>
<text text-anchor="middle" x="27" y="-374.3" font-family="Times,serif" font-size="14.00">A</text>
</g>
<!-- 0&#45;&gt;1 -->
<g id="edge1" class="edge">
<title>0&#45;&gt;1</title>
<path fill="none" stroke="black" d="M149.13,-438.37C124.64,-426.46 84.78,-407.09 57.3,-393.73"/>
<polygon fill="black" stroke="black" points="58.66,-390.5 48.14,-389.27 55.6,-396.79 58.66,-390.5"/>
</g>
<!-- 2 -->
<g id="node3" class="node">
<title>2</title>
<ellipse fill="none" stroke="black" cx="99" cy="-378" rx="27" ry="18"/>
<text text-anchor="middle" x="99" y="-374.3" font-family="Times,serif" font-size="14.00">b</text>
</g>
<!-- 0&#45;&gt;2 -->
<g id="edge2" class="edge">
<title>0&#45;&gt;2</title>
<path fill="none" stroke="black" d="M156.08,-434.5C146.04,-424.73 132.62,-411.69 121.32,-400.7"/>
<polygon fill="black" stroke="black" points="123.51,-397.95 113.9,-393.49 118.63,-402.97 123.51,-397.95"/>
</g>
<!-- 3 -->
<g id="node4" class="node">
<title>3</title>
<ellipse fill="none" stroke="black" cx="171" cy="-378" rx="27" ry="18"/>
<text text-anchor="middle" x="171" y="-374.3" font-family="Times,serif" font-size="14.00">*</text>
</g>
<!-- 0&#45;&gt;3 -->
<g id="edge3" class="edge">
<title>0&#45;&gt;3</title>
<path fill="none" stroke="black" d="M171,-431.7C171,-423.98 171,-414.71 171,-406.11"/>
<polygon fill="black" stroke="black" points="174.5,-406.1 171,-396.1 167.5,-406.1 174.5,-406.1"/>
</g>
<!-- 14 -->
<g id="node15" class="node">
<title>14</title>
<ellipse fill="none" stroke="black" cx="243" cy="-378" rx="27" ry="18"/>
<text text-anchor="middle" x="243" y="-374.3" font-family="Times,serif" font-size="14.00">Alt</text>
</g>
<!-- 0&#45;&gt;14 -->
<g id="edge14" class="edge">
<title>0&#45;&gt;14</title>
<path fill="none" stroke="black" d="M185.92,-434.5C195.96,-424.73 209.38,-411.69 220.68,-400.7"/>
<polygon fill="black" stroke="black" points="223.37,-402.97 228.1,-393.49 218.49,-397.95 223.37,-402.97"/>
</g>
<!-- 20 -->
<g id="node21" class="node">
<title>20</title>
<ellipse fill="none" stroke="black" cx="315" cy="-378" rx="27" ry="18"/>
<text text-anchor="middle" x="315" y="-374.3" font-family="Times,serif" font-size="14.00">3</text>
</g>
<!-- 0&#45;&gt;20 -->
<g id="edge20" class="edge">
<title>0&#45;&gt;20</title>
<path fill="none" stroke="black" d="M192.87,-438.37C217.36,-426.46 257.22,-407.09 284.7,-393.73"/>
<polygon fill="black" stroke="black" points="286.4,-396.79 293.86,-389.27 283.34,-390.5 286.4,-396.79"/>
</g>
<!-- 4 -->
<g id="node5" class="node">
<title>4</title>
<ellipse fill="none" stroke="black" cx="169" cy="-306" rx="28.7" ry="18"/>
<text text-anchor="middle" x="169" y="-302.3" font-family="Times,serif" font-size="14.00">Seq</text>
</g>
<!-- 3&#45;&gt;4 -->
<g id="edge4" class="edge">
<title>3&#45;&gt;4</title>
<path fill="none" stroke="black" d="M170.51,-359.7C170.29,-351.98 170.02,-342.71 169.77,-334.11"/>
<polygon fill="black" stroke="black" points="173.27,-334 169.49,-324.1 166.28,-334.2 173.27,-334"/>
</g>
<!-- 5 -->
<g id="node6" class="node">
<title>5</title>
<ellipse fill="none" stroke="black" cx="96" cy="-234" rx="27" ry="18"/>
<text text-anchor="middle" x="96" y="-230.3" font-family="Times,serif" font-size="14.00">c</text>
</g>
<!-- 4&#45;&gt;5 -->
<g id="edge5" class="edge">
<title>4&#45;&gt;5</title>
<path fill="none" stroke="black" d="M153.87,-290.5C143.63,-280.67 129.91,-267.52 118.4,-256.48"/>
<polygon fill="black" stroke="black" points="120.5,-253.64 110.86,-249.25 115.65,-258.69 120.5,-253.64"/>
</g>
<!-- 6 -->
<g id="node7" class="node">
<title>6</title>
<ellipse fill="none" stroke="black" cx="170" cy="-234" rx="28.7" ry="18"/>
<text text-anchor="middle" x="170" y="-230.3" font-family="Times,serif" font-size="14.00">Seq</text>
</g>
<!-- 4&#45;&gt;6 -->
<g id="edge6" class="edge">
<title>4&#45;&gt;6</title>
<path fill="none" stroke="black" d="M169.25,-287.7C169.36,-279.98 169.49,-270.71 169.61,-262.11"/>
<polygon fill="black" stroke="black" points="173.11,-262.15 169.76,-252.1 166.11,-262.05 173.11,-262.15"/>
</g>
<!-- 7 -->
<g id="node8" class="node">
<title>7</title>
<ellipse fill="none" stroke="black" cx="134" cy="-162" rx="27" ry="18"/>
<text text-anchor="middle" x="134" y="-158.3" font-family="Times,serif" font-size="14.00">Alt</text>
</g>
<!-- 6&#45;&gt;7 -->
<g id="edge7" class="edge">
<title>6&#45;&gt;7</title>
<path fill="none" stroke="black" d="M161.65,-216.76C157.29,-208.28 151.85,-197.71 146.96,-188.2"/>
<polygon fill="black" stroke="black" points="149.99,-186.44 142.3,-179.15 143.77,-189.64 149.99,-186.44"/>
</g>
<!-- 10 -->
<g id="node11" class="node">
<title>10</title>
<ellipse fill="none" stroke="black" cx="206" cy="-162" rx="27" ry="18"/>
<text text-anchor="middle" x="206" y="-158.3" font-family="Times,serif" font-size="14.00">*</text>
</g>
<!-- 6&#45;&gt;10 -->
<g id="edge10" class="edge">
<title>6&#45;&gt;10</title>
<path fill="none" stroke="black" d="M178.35,-216.76C182.71,-208.28 188.15,-197.71 193.04,-188.2"/>
<polygon fill="black" stroke="black" points="196.23,-189.64 197.7,-179.15 190.01,-186.44 196.23,-189.64"/>
</g>
<!-- 8 -->
<g id="node9" class="node">
<title>8</title>
<ellipse fill="none" stroke="black" cx="62" cy="-90" rx="27" ry="18"/>
<text text-anchor="middle" x="62" y="-86.3" font-family="Times,serif" font-size="14.00">d</text>
</g>
<!-- 7&#45;&gt;8 -->
<g id="edge8" class="edge">
<title>7&#45;&gt;8</title>
<path fill="none" stroke="black" d="M119.43,-146.83C109.25,-136.94 95.48,-123.55 83.97,-112.36"/>
<polygon fill="black" stroke="black" points="86.41,-109.85 76.8,-105.38 81.53,-114.87 86.41,-109.85"/>
</g>
<!-- 9 -->
<g id="node10" class="node">
<title>9</title>
<ellipse fill="none" stroke="black" cx="134" cy="-90" rx="27" ry="18"/>
<text text-anchor="middle" x="134" y="-86.3" font-family="Times,serif" font-size="14.00">e</text>
</g>
<!-- 7&#45;&gt;9 -->
<g id="edge9" class="edge">
<title>7&#45;&gt;9</title>
<path fill="none" stroke="black" d="M134,-143.7C134,-135.98 134,-126.71 134,-118.11"/>
<polygon fill="black" stroke="black" points="137.5,-118.1 134,-108.1 130.5,-118.1 137.5,-118.1"/>
</g>
<!-- 11 -->
<g id="node12" class="node">
<title>11</title>
<ellipse fill="none" stroke="black" cx="206" cy="-90" rx="27" ry="18"/>
<text text-anchor="middle" x="206" y="-86.3" font-family="Times,serif" font-size="14.00">Alt</text>
</g>
<!-- 10&#45;&gt;11 -->
<g id="edge11" class="edge">
<title>10&#45;&gt;11</title>
<path fill="none" stroke="black" d="M206,-143.7C206,-135.98 206,-126.71 206,-118.11"/>
<polygon fill="black" stroke="black" points="209.5,-118.1 206,-108.1 202.5,-118.1 209.5,-118.1"/>
</g>
<!-- 12 -->
<g id="node13" class="node">
<title>12</title>
<ellipse fill="none" stroke="black" cx="170" cy="-18" rx="27" ry="18"/>
<text text-anchor="middle" x="170" y="-14.3" font-family="Times,serif" font-size="14.00">d</text>
</g>
<!-- 11&#45;&gt;12 -->
<g id="edge12" class="edge">
<title>11&#45;&gt;12</title>
<path fill="none" stroke="black" d="M197.65,-72.76C193.29,-64.28 187.85,-53.71 182.96,-44.2"/>
<polygon fill="black" stroke="black" points="185.99,-42.44 178.3,-35.15 179.77,-45.64 185.99,-42.44"/>
</g>
<!-- 13 -->
<g id="node14" class="node">
<title>13</title>
<ellipse fill="none" stroke="black" cx="242" cy="-18" rx="27" ry="18"/>
<text text-anchor="middle" x="242" y="-14.3" font-family="Times,serif" font-size="14.00">e</text>
</g>
<!-- 11&#45;&gt;13 -->
<g id="edge13" class="edge">
<title>11&#45;&gt;13</title>
<path fill="none" stroke="black" d="M214.35,-72.76C218.71,-64.28 224.15,-53.71 229.04,-44.2"/>
<polygon fill="black" stroke="black" points="232.23,-45.64 233.7,-35.15 226.01,-42.44 232.23,-45.64"/>
</g>
<!-- 15 -->
<g id="node16" class="node">
<title>15</title>
<ellipse fill="none" stroke="black" cx="243" cy="-306" rx="27" ry="18"/>
<text text-anchor="middle" x="243" y="-302.3" font-family="Times,serif" font-size="14.00">.</text>
</g>
<!-- 14&#45;&gt;15 -->
<g id="edge15" class="edge">
<title>14&#45;&gt;15</title>
<path fill="none" stroke="black" d="M243,-359.7C243,-351.98 243,-342.71 243,-334.11"/>
<polygon fill="black" stroke="black" points="246.5,-334.1 243,-324.1 239.5,-334.1 246.5,-334.1"/>
</g>
<!-- 16 -->
<g id="node17" class="node">
<title>16</title>
<ellipse fill="none" stroke="black" cx="317" cy="-306" rx="28.7" ry="18"/>
<text text-anchor="middle" x="317" y="-302.3" font-family="Times,serif" font-size="14.00">Seq</text>
</g>
<!-- 14&#45;&gt;16 -->
<g id="edge16" class="edge">
<title>14&#45;&gt;16</title>
<path fill="none" stroke="black" d="M257.98,-362.83C268.44,-352.94 282.59,-339.55 294.42,-328.36"/>
<polygon fill="black" stroke="black" points="296.93,-330.8 301.79,-321.38 292.12,-325.71 296.93,-330.8"/>
</g>
<!-- 17 -->
<g id="node18" class="node">
<title>17</title>
<ellipse fill="none" stroke="black" cx="245" cy="-234" rx="27" ry="18"/>
<text text-anchor="middle" x="245" y="-230.3" font-family="Times,serif" font-size="14.00">0</text>
</g>
<!-- 16&#45;&gt;17 -->
<g id="edge17" class="edge">
<title>16&#45;&gt;17</title>
<path fill="none" stroke="black" d="M302.08,-290.5C292.04,-280.73 278.62,-267.69 267.32,-256.7"/>
<polygon fill="black" stroke="black" points="269.51,-253.95 259.9,-249.49 264.63,-258.97 269.51,-253.95"/>
</g>
<!-- 18 -->
<g id="node19" class="node">
<title>18</title>
<ellipse fill="none" stroke="black" cx="317" cy="-234" rx="27" ry="18"/>
<text text-anchor="middle" x="317" y="-230.3" font-family="Times,serif" font-size="14.00">1</text>
</g>
<!-- 16&#45;&gt;18 -->
<g id="edge18" class="edge">
<title>16&#45;&gt;18</title>
<path fill="none" stroke="black" d="M317,-287.7C317,-279.98 317,-270.71 317,-262.11"/>
<polygon fill="black" stroke="black" points="320.5,-262.1 317,-252.1 313.5,-262.1 320.5,-262.1"/>
</g>
<!-- 19 -->
<g id="node20" class="node">
<title>19</title>
<ellipse fill="none" stroke="black" cx="389" cy="-234" rx="27" ry="18"/>
<text text-anchor="middle" x="389" y="-230.3" font-family="Times,serif" font-size="14.00">2</text>
</g>
<!-- 16&#45;&gt;19 -->
<g id="edge19" class="edge">
<title>16&#45;&gt;19</title>
<path fill="none" stroke="black" d="M331.92,-290.5C341.96,-280.73 355.38,-267.69 366.68,-256.7"/>
<polygon fill="black" stroke="black" points="369.37,-258.97 374.1,-249.49 364.49,-253.95 369.37,-258.97"/>
</g>
</g>
</svg>
